<?xml version="1.0" encoding="utf-8"?>
<!-- Generator: Adobe Illustrator 16.0.0, SVG Export Plug-In . SVG Version: 6.00 Build 0)  -->
<!DOCTYPE svg PUBLIC "-//W3C//DTD SVG 1.1//EN" "http://www.w3.org/Graphics/SVG/1.1/DTD/svg11.dtd">
<svg version="1.1" id="Layer_1" xmlns="http://www.w3.org/2000/svg" xmlns:xlink="http://www.w3.org/1999/xlink" x="0px" y="0px"
	 width="360px" height="360px" viewBox="0 0 360 360" enable-background="new 0 0 360 360" xml:space="preserve">
<rect x="-19.208" y="-19.007" fill="#3E2254" stroke="#000000" stroke-width="1.2711" stroke-miterlimit="10" width="396.855" height="397.949"/>
<rect x="-8.981" y="1.316" transform="matrix(0.9251 -0.3798 0.3798 0.9251 -72.1739 74.287)" fill="none" width="322.275" height="437.434"/>
<text transform="matrix(0.925 -0.3799 0.3799 0.925 44.0713 381.0352)" fill="#FFFFFF" font-family="'MyriadPro-Bold'" font-size="460">4</text>
<rect x="93.919" y="16.161" transform="matrix(0.9238 -0.3828 0.3828 0.9238 -50.9422 98.6139)" fill="none" width="256.841" height="322.321"/>
<text transform="matrix(0.9238 -0.3828 0.3828 0.9238 147.999 333.4014)" fill="#808285" stroke="#FFFFFF" stroke-width="10" stroke-miterlimit="10" font-family="'MyriadPro-Bold'" font-size="390">1</text>
<rect x="155.79" y="-9.687" transform="matrix(0.9238 -0.3828 0.3828 0.9238 -36.3356 120.3281)" fill="none" width="256.84" height="322.321"/>
<text transform="matrix(0.9238 -0.3828 0.3828 0.9238 209.8701 307.5527)" fill="#808285" stroke="#FFFFFF" stroke-width="10" stroke-miterlimit="10" font-family="'MyriadPro-Bold'" font-size="390">1</text>
<rect x="78.022" y="52.181" fill="none" width="69.385" height="31.563"/>
<text transform="matrix(1 0 0 1 78.0215 73.4819)" font-family="'MyriadPro-Bold'" font-size="30">THE</text>
</svg>
