<?xml version="1.0" encoding="utf-8"?>
<!-- Generator: Adobe Illustrator 16.0.0, SVG Export Plug-In . SVG Version: 6.00 Build 0)  -->
<!DOCTYPE svg PUBLIC "-//W3C//DTD SVG 1.1//EN" "http://www.w3.org/Graphics/SVG/1.1/DTD/svg11.dtd">
<svg version="1.1" id="Layer_1" xmlns="http://www.w3.org/2000/svg" xmlns:xlink="http://www.w3.org/1999/xlink" x="0px" y="0px"
	 width="50.446px" height="26.699px" viewBox="0 0 50.446 26.699" enable-background="new 0 0 50.446 26.699" xml:space="preserve">
<g>
	
		<image overflow="visible" opacity="0.75" width="200" height="82" xlink:href="47FA557CCB91374F.png"  transform="matrix(0.24 0 0 0.24 1.5645 4.4937)">
	</image>
	<g>
		<path fill="#3E2254" d="M44.718,17.387c0,1.094-0.887,1.98-1.98,1.98H5.921c-1.094,0-1.98-0.887-1.98-1.98V8.85
			c0-1.094,0.887-1.98,1.98-1.98h36.816c1.094,0,1.98,0.887,1.98,1.98V17.387z"/>
	</g>
</g>
<rect x="5.593" y="11.444" fill="none" width="25.597" height="4.158"/>
<text transform="matrix(1 0 0 1 7.4995 14.332)" fill="#FFFFFF" font-family="'UniversLTStd-Bold'" font-size="4">Listen Now</text>
<path fill="#FFFFFF" d="M38.032,9.685v6.867l-2.575-2.06h-2.061v-2.747h2.061L38.032,9.685z M39.543,14.153
	c0.177-0.317,0.266-0.661,0.266-1.03s-0.089-0.712-0.266-1.03c-0.178-0.317-0.415-0.574-0.713-0.768l-0.369,0.566
	c0.206,0.132,0.369,0.306,0.489,0.523c0.121,0.218,0.181,0.454,0.181,0.708s-0.06,0.491-0.181,0.708
	c-0.12,0.218-0.283,0.392-0.489,0.524l0.369,0.566C39.128,14.727,39.365,14.471,39.543,14.153z M40.53,11.548
	c-0.269-0.486-0.632-0.878-1.09-1.176l-0.369,0.566c0.366,0.234,0.657,0.545,0.871,0.931c0.215,0.387,0.322,0.804,0.322,1.253
	s-0.107,0.866-0.322,1.249c-0.214,0.383-0.505,0.692-0.871,0.927l0.369,0.566c0.458-0.298,0.821-0.688,1.09-1.172
	s0.404-1.007,0.404-1.571C40.934,12.559,40.799,12.034,40.53,11.548z"/>
</svg>
