<?xml version="1.0" encoding="utf-8"?>
<!-- Generator: Adobe Illustrator 16.0.0, SVG Export Plug-In . SVG Version: 6.00 Build 0)  -->
<!DOCTYPE svg PUBLIC "-//W3C//DTD SVG 1.1//EN" "http://www.w3.org/Graphics/SVG/1.1/DTD/svg11.dtd">
<svg version="1.1" id="Layer_1" xmlns="http://www.w3.org/2000/svg" xmlns:xlink="http://www.w3.org/1999/xlink" x="0px" y="0px"
	 width="50.446px" height="26.699px" viewBox="0 0 50.446 26.699" enable-background="new 0 0 50.446 26.699" xml:space="preserve">
<g>
	
		<image overflow="visible" opacity="0.75" width="200" height="82" xlink:href="8AF64303238F2696.png"  transform="matrix(0.24 0 0 0.24 1.5645 4.4937)">
	</image>
	<g>
		<path fill="#3E2254" d="M44.718,17.387c0,1.094-0.887,1.98-1.98,1.98H5.921c-1.094,0-1.98-0.887-1.98-1.98V8.85
			c0-1.094,0.887-1.98,1.98-1.98h36.816c1.094,0,1.98,0.887,1.98,1.98V17.387z"/>
	</g>
</g>
<rect x="5.593" y="11.444" fill="none" width="25.597" height="4.158"/>
<text transform="matrix(1 0 0 1 5.6099 14.332)" fill="#FFFFFF" font-family="'UniversLTStd-Bold'" font-size="4">Watch Trailer</text>
<path fill="#FFFFFF" d="M41.67,10.683h-0.047l-1.321,0.826c-0.281,0.012-0.533,0.131-0.722,0.316v-0.741
	c0-0.607-0.494-1.101-1.101-1.101h-4.152c-0.607,0-1.101,0.494-1.101,1.101v3.451c0,0.606,0.494,1.1,1.101,1.1h4.152
	c0.607,0,1.101-0.494,1.101-1.1v-0.704c0.188,0.185,0.441,0.304,0.722,0.316l1.321,0.826h0.047c0.771,0,0.771-0.771,0.771-1.101
	v-2.089C42.44,11.454,42.44,10.683,41.67,10.683z"/>
</svg>
